<svg width="28" height="29" viewBox="0 0 28 29" fill="none" xmlns="http://www.w3.org/2000/svg">
<path d="M25.2354 19.6926H8.95225L9.76982 18.0273L23.3542 18.0027C23.8136 18.0027 24.2073 17.6746 24.2894 17.2207L26.1706 6.69062C26.2198 6.41445 26.146 6.13008 25.9655 5.91406C25.8763 5.80775 25.7651 5.72211 25.6395 5.66309C25.5139 5.60407 25.377 5.57308 25.2382 5.57227L7.95693 5.51484L7.80928 4.82031C7.71631 4.37734 7.31709 4.05469 6.86318 4.05469H2.63857C2.38258 4.05469 2.13707 4.15638 1.95605 4.3374C1.77503 4.51841 1.67334 4.76393 1.67334 5.01992C1.67334 5.27592 1.77503 5.52143 1.95605 5.70245C2.13707 5.88346 2.38258 5.98516 2.63857 5.98516H6.08115L6.72646 9.05312L8.31514 16.7449L6.26982 20.0836C6.16361 20.227 6.09963 20.3972 6.08514 20.575C6.07064 20.7528 6.1062 20.9312 6.18779 21.0898C6.35186 21.4152 6.68271 21.6203 7.04912 21.6203H8.76631C8.40023 22.1065 8.20249 22.6988 8.20303 23.3074C8.20303 24.8551 9.46084 26.1129 11.0085 26.1129C12.5562 26.1129 13.814 24.8551 13.814 23.3074C13.814 22.6977 13.6116 22.1043 13.2507 21.6203H17.6558C17.2897 22.1065 17.0919 22.6988 17.0925 23.3074C17.0925 24.8551 18.3503 26.1129 19.8979 26.1129C21.4456 26.1129 22.7034 24.8551 22.7034 23.3074C22.7034 22.6977 22.5011 22.1043 22.1401 21.6203H25.2382C25.7687 21.6203 26.2034 21.1883 26.2034 20.6551C26.2018 20.3994 26.0992 20.1546 25.9178 19.9743C25.7365 19.794 25.4912 19.6927 25.2354 19.6926ZM8.35889 7.41797L24.1034 7.46992L22.5612 16.1051L10.1937 16.127L8.35889 7.41797ZM11.0085 24.1715C10.5327 24.1715 10.1444 23.7832 10.1444 23.3074C10.1444 22.8316 10.5327 22.4434 11.0085 22.4434C11.4843 22.4434 11.8726 22.8316 11.8726 23.3074C11.8726 23.5366 11.7815 23.7564 11.6195 23.9184C11.4574 24.0805 11.2377 24.1715 11.0085 24.1715ZM19.8979 24.1715C19.4222 24.1715 19.0339 23.7832 19.0339 23.3074C19.0339 22.8316 19.4222 22.4434 19.8979 22.4434C20.3737 22.4434 20.762 22.8316 20.762 23.3074C20.762 23.5366 20.671 23.7564 20.5089 23.9184C20.3469 24.0805 20.1271 24.1715 19.8979 24.1715Z" fill="black"/>
</svg>
