<svg width="61" height="60" viewBox="0 0 61 60" fill="none" xmlns="http://www.w3.org/2000/svg">
<g clip-path="url(#clip0_6_559)">
<path d="M57.4525 21.2611C56.6608 18.8096 56.9983 15.1295 54.9405 12.2881C52.8665 9.42425 49.2594 8.61027 47.2225 7.12058C45.2071 5.6466 43.3321 2.43906 39.942 1.33281C36.6475 0.25773 33.2786 1.7166 30.6665 1.7166C28.0547 1.7166 24.6861 0.257378 21.391 1.33269C18.0015 2.43871 16.1249 5.64695 14.1108 7.12023C12.0762 8.60816 8.46639 9.42437 6.39275 12.2877C4.3367 15.1268 4.6708 18.8153 3.88049 21.261C3.12838 23.5887 0.666504 26.3823 0.666504 30.0002C0.666504 33.6202 3.12557 36.403 3.88049 38.7392C4.67221 41.1907 4.33471 44.8708 6.39252 47.7122C8.46639 50.5762 12.0734 51.39 14.1105 52.8798C16.1255 54.3536 18.0009 57.5614 21.391 58.6675C24.6833 59.7419 28.0574 58.2837 30.6665 58.2837C33.2719 58.2837 36.654 59.7403 39.942 58.6676C43.3317 57.5616 45.207 54.3541 47.2222 52.8801C49.2568 51.3921 52.8666 50.5759 54.9403 47.7126C56.9964 44.8734 56.6621 41.1852 57.4525 38.7393C58.2046 36.4115 60.6665 33.6178 60.6665 30.0002C60.6665 26.3803 58.208 23.5983 57.4525 21.2611ZM52.9922 37.2979C52.0694 40.1543 52.3112 43.3511 51.144 44.9629C49.9611 46.5961 46.8534 47.3421 44.4554 49.0962C42.0836 50.8307 40.4213 53.5803 38.4879 54.2111C36.6589 54.808 33.6781 53.596 30.6666 53.596C27.6331 53.596 24.683 54.8106 22.8452 54.2111C20.9121 53.5803 19.2521 50.8326 16.8778 49.0961C14.4939 47.3527 11.3685 46.5913 10.189 44.9627C9.02561 43.3562 9.25822 40.1373 8.341 37.298C7.44193 34.5161 5.354 32.1073 5.354 30.0002C5.354 27.8909 7.44006 25.4904 8.34076 22.7024C9.26361 19.8461 9.02186 16.6491 10.189 15.0374C11.3712 13.4052 14.4813 12.6568 16.8778 10.9041C19.257 9.16398 20.9089 6.42097 22.8449 5.78921C24.6725 5.19296 27.663 6.40433 30.6664 6.40433C33.7054 6.40433 36.6481 5.18886 38.4878 5.78921C40.4207 6.41992 42.0821 9.16867 44.4554 10.9042C46.8388 12.6476 49.9645 13.409 51.144 15.0375C52.3076 16.6443 52.0737 19.8599 52.992 22.7022V22.7023C53.8911 25.4842 55.979 27.893 55.979 30.0002C55.979 32.1094 53.8929 34.5099 52.9922 37.2979ZM41.4645 22.4773C42.3799 23.3927 42.3799 24.8766 41.4645 25.7918L29.7333 37.523C28.818 38.4384 27.3339 38.4382 26.4187 37.523L19.8686 30.9729C18.9533 30.0576 18.9531 28.5736 19.8685 27.6584C20.7838 26.7432 22.268 26.743 23.183 27.6584L28.076 32.5512L38.1497 22.4774C39.0651 21.5621 40.5492 21.5621 41.4645 22.4773Z" fill="#242424"/>
</g>
<defs>
<clipPath id="clip0_6_559">
<rect width="60" height="60" fill="white" transform="translate(0.666504)"/>
</clipPath>
</defs>
</svg>
