<svg width="268" height="61" viewBox="0 0 268 61" fill="none" xmlns="http://www.w3.org/2000/svg">
<rect y="11.5" width="43" height="8" fill="#7F4E25"/>
<rect y="36.5" width="43" height="8" fill="#7F4E25"/>
<rect x="9" y="24.5" width="43" height="8" fill="#CA9D66"/>
<path d="M2 9.5H47V21.8802H2V34.7231H47V46.9876H42.5344M2 46.9876H7.03817M7.03817 46.9876V51.5H7.9542V46.9876M7.03817 46.9876H7.9542M7.9542 46.9876H41.3893M41.3893 46.9876V51.5H42.5344V46.9876M41.3893 46.9876H42.5344" stroke="black" stroke-width="1.4"/>
<path d="M18 15.5H25" stroke="black" stroke-width="1.4"/>
<path d="M18 40.5H25" stroke="black" stroke-width="1.4"/>
<path d="M27 28.5H34" stroke="black" stroke-width="1.4"/>
<path d="M73.4521 35.1562V41H58.5938V35.1562H61.7979V20.4307H58.5938V14.5869H80.3916V25.2617H75.5938L74.5479 20.4307H70.2979V25.4277H74V29.6777H70.2979V35.1562H73.4521ZM86.8496 41.2988C85.7207 41.2988 84.6969 41.0775 83.7783 40.6348C82.8486 40.2031 82.1071 39.5778 81.5537 38.7588C81.0003 37.9398 80.7236 36.988 80.7236 35.9033C80.7236 34.7301 81.0501 33.734 81.7031 32.915C82.3561 32.1182 83.2083 31.5205 84.2598 31.1221C85.3223 30.7236 86.4678 30.5244 87.6963 30.5244C89.1462 30.5244 90.5407 30.7402 91.8799 31.1719V30.4248C91.8799 29.5394 91.5036 28.8643 90.751 28.3994C90.0094 27.9346 89.0023 27.7021 87.7295 27.7021C87.1872 27.7021 86.5785 27.7686 85.9033 27.9014C85.2282 28.0342 84.5697 28.2168 83.9277 28.4492C83.2858 28.6816 82.7269 28.9417 82.251 29.2295L81.7695 29.0303V24.1992C83.1087 23.7233 84.4756 23.3857 85.8701 23.1865C87.2646 22.9762 88.5651 22.8711 89.7715 22.8711C96.5007 22.8711 99.8652 24.7637 99.8652 28.5488V36.0029H101.426V41H92.9258L92.1787 38.2773C91.7028 39.207 90.9613 39.943 89.9541 40.4854C88.9469 41.0277 87.9121 41.2988 86.8496 41.2988ZM89.9707 37.0488C90.3359 37.0488 90.7067 36.988 91.083 36.8662C91.4704 36.7445 91.736 36.6172 91.8799 36.4844V33.6953C91.7139 33.6732 91.4482 33.6068 91.083 33.4961C90.7067 33.3965 90.3802 33.3467 90.1035 33.3467C89.5169 33.3467 89.0465 33.5293 88.6924 33.8945C88.3493 34.2598 88.1777 34.7467 88.1777 35.3555C88.1777 35.8092 88.3382 36.2077 88.6592 36.5508C88.9912 36.8828 89.4284 37.0488 89.9707 37.0488ZM126.079 29.7109V36.2021H128.387V41H118.11V29.6777C118.11 29.2018 117.955 28.7812 117.646 28.416C117.347 28.0508 116.981 27.8682 116.55 27.8682C115.742 27.8682 115.233 28.2721 115.022 29.0801C114.801 29.9102 114.69 31.0723 114.69 32.5664V36.2021H114.724V41H104.348V36.2021H106.755V28.3496H104.348V23.8672L114.69 22.8711V25.3613C115.454 24.4538 116.323 23.8118 117.297 23.4355C118.271 23.0592 119.372 22.8711 120.601 22.8711C124.253 22.8711 126.079 25.151 126.079 29.7109ZM138.431 41.2988C134.17 41.2988 132.039 39.0798 132.039 34.6416V28.084H129.383V23.2197H132.039V19.418L139.991 17.6416V23.2197H143.179V28.084H139.991V34.0605C139.991 34.5586 140.179 34.9736 140.556 35.3057C140.932 35.6377 141.402 35.8037 141.967 35.8037C142.376 35.8037 142.78 35.7705 143.179 35.7041V40.3193C141.718 40.9723 140.135 41.2988 138.431 41.2988ZM152.094 41.2988C150.965 41.2988 149.941 41.0775 149.022 40.6348C148.093 40.2031 147.351 39.5778 146.798 38.7588C146.244 37.9398 145.968 36.988 145.968 35.9033C145.968 34.7301 146.294 33.734 146.947 32.915C147.6 32.1182 148.452 31.5205 149.504 31.1221C150.566 30.7236 151.712 30.5244 152.94 30.5244C154.39 30.5244 155.785 30.7402 157.124 31.1719V30.4248C157.124 29.5394 156.748 28.8643 155.995 28.3994C155.254 27.9346 154.246 27.7021 152.974 27.7021C152.431 27.7021 151.823 27.7686 151.147 27.9014C150.472 28.0342 149.814 28.2168 149.172 28.4492C148.53 28.6816 147.971 28.9417 147.495 29.2295L147.014 29.0303V24.1992C148.353 23.7233 149.72 23.3857 151.114 23.1865C152.509 22.9762 153.809 22.8711 155.016 22.8711C161.745 22.8711 165.109 24.7637 165.109 28.5488V36.0029H166.67V41H158.17L157.423 38.2773C156.947 39.207 156.205 39.943 155.198 40.4854C154.191 41.0277 153.156 41.2988 152.094 41.2988ZM155.215 37.0488C155.58 37.0488 155.951 36.988 156.327 36.8662C156.715 36.7445 156.98 36.6172 157.124 36.4844V33.6953C156.958 33.6732 156.692 33.6068 156.327 33.4961C155.951 33.3965 155.624 33.3467 155.348 33.3467C154.761 33.3467 154.291 33.5293 153.937 33.8945C153.593 34.2598 153.422 34.7467 153.422 35.3555C153.422 35.8092 153.582 36.2077 153.903 36.5508C154.235 36.8828 154.673 37.0488 155.215 37.0488ZM178.573 41.2988C176.304 41.2988 174.296 40.7012 172.547 39.5059L171.999 41H168.911V34.4424H172.613C172.757 35.2835 173.15 36.0361 173.792 36.7002C174.434 37.3643 175.175 37.6963 176.017 37.6963C176.338 37.6963 176.614 37.6077 176.847 37.4307C177.09 37.2536 177.212 36.9603 177.212 36.5508C177.212 36.1413 176.979 35.7705 176.515 35.4385C176.039 35.0954 175.33 34.7025 174.39 34.2598C173.25 33.6953 172.32 33.1807 171.601 32.7158C170.87 32.251 170.239 31.6423 169.708 30.8896C169.177 30.126 168.911 29.2129 168.911 28.1504C168.911 27.0547 169.271 26.1029 169.99 25.2949C170.71 24.498 171.656 23.8949 172.829 23.4854C174.002 23.0758 175.281 22.8711 176.664 22.8711C178.468 22.8711 180.145 23.347 181.694 24.2988L182.109 23.2197H184.865V28.5156H181.661C181.384 27.7962 180.986 27.2318 180.466 26.8223C179.946 26.4128 179.337 26.208 178.64 26.208C177.821 26.208 177.411 26.4681 177.411 26.9883C177.422 27.3424 177.638 27.6468 178.059 27.9014C178.479 28.1449 179.16 28.4769 180.101 28.8975C180.687 29.141 181.224 29.3844 181.711 29.6279C182.198 29.8714 182.635 30.1038 183.022 30.3252C183.797 30.779 184.472 31.4209 185.048 32.251C185.623 33.07 185.911 34.0938 185.911 35.3223C185.911 36.6283 185.574 37.724 184.898 38.6094C184.223 39.5059 183.327 40.181 182.209 40.6348C181.091 41.0775 179.879 41.2988 178.573 41.2988ZM197.134 41.2988C192.873 41.2988 190.742 39.0798 190.742 34.6416V28.084H188.086V23.2197H190.742V19.418L198.694 17.6416V23.2197H201.882V28.084H198.694V34.0605C198.694 34.5586 198.882 34.9736 199.259 35.3057C199.635 35.6377 200.105 35.8037 200.67 35.8037C201.079 35.8037 201.483 35.7705 201.882 35.7041V40.3193C200.421 40.9723 198.838 41.2988 197.134 41.2988ZM211.926 41.2988C208.362 41.2988 206.58 39.0687 206.58 34.6084V28.3496H204.438V23.8672L214.532 22.8711V34.6084C214.532 35.04 214.693 35.4385 215.014 35.8037C215.335 36.1579 215.711 36.335 216.143 36.335C216.641 36.335 217.028 36.1689 217.305 35.8369C217.592 35.4938 217.736 35.0732 217.736 34.5752V28.3496H216.143V23.8672L225.688 22.8711V36.0029H227.83V41H217.736V38.4102C217.15 39.3177 216.364 40.026 215.379 40.5352C214.405 41.0443 213.254 41.2988 211.926 41.2988ZM242.722 41H229.972V36.0029H232.113V28.3496H229.972V23.8672L240.065 22.8711V25.7598C240.42 25.2064 240.94 24.7139 241.626 24.2822C242.312 23.8395 243.043 23.4964 243.817 23.2529C244.603 22.9984 245.306 22.8711 245.926 22.8711V29.9102C244.631 29.4785 243.563 29.2627 242.722 29.2627C241.659 29.2627 240.951 29.5726 240.597 30.1924C240.243 30.8011 240.065 31.6035 240.065 32.5996V36.0029H242.722V41ZM257.862 41.2988C255.804 41.2988 254.016 40.917 252.5 40.1533C250.973 39.4007 249.799 38.3216 248.98 36.916C248.173 35.5104 247.769 33.8669 247.769 31.9854C247.769 30.126 248.167 28.5101 248.964 27.1377C249.75 25.7764 250.862 24.7249 252.301 23.9834C253.74 23.2419 255.427 22.8711 257.364 22.8711C259.146 22.8711 260.718 23.2197 262.079 23.917C263.44 24.6253 264.492 25.627 265.233 26.9219C265.986 28.2168 266.362 29.7275 266.362 31.4541C266.362 32.0518 266.274 32.6162 266.097 33.1475H255.754C255.754 34.1878 256.147 35.0234 256.933 35.6543C257.718 36.2741 258.665 36.584 259.771 36.584C260.613 36.584 261.537 36.4401 262.544 36.1523C263.551 35.8535 264.564 35.3942 265.582 34.7744L265.864 34.874V39.3398C264.724 39.9928 263.551 40.4854 262.345 40.8174C261.149 41.1383 259.655 41.2988 257.862 41.2988ZM255.754 29.7441V30.2256H260.004V29.877C260.004 29.0911 259.821 28.416 259.456 27.8516C259.102 27.276 258.571 26.9883 257.862 26.9883C257.276 26.9883 256.778 27.2816 256.368 27.8682C255.959 28.4437 255.754 29.069 255.754 29.7441Z" fill="black"/>
</svg>
