<svg width="209" height="28" viewBox="0 0 209 28" fill="none" xmlns="http://www.w3.org/2000/svg">
<path d="M15.4517 21.1562V27H0.593262V21.1562H3.79736V6.43066H0.593262V0.586914H22.3911V11.2617H17.5933L16.5474 6.43066H12.2974V11.4277H15.9995V15.6777H12.2974V21.1562H15.4517ZM28.8491 27.2988C27.7202 27.2988 26.6965 27.0775 25.7778 26.6348C24.8481 26.2031 24.1066 25.5778 23.5532 24.7588C22.9998 23.9398 22.7231 22.988 22.7231 21.9033C22.7231 20.7301 23.0496 19.734 23.7026 18.915C24.3556 18.1182 25.2078 17.5205 26.2593 17.1221C27.3218 16.7236 28.4673 16.5244 29.6958 16.5244C31.1457 16.5244 32.5402 16.7402 33.8794 17.1719V16.4248C33.8794 15.5394 33.5031 14.8643 32.7505 14.3994C32.009 13.9346 31.0018 13.7021 29.729 13.7021C29.1867 13.7021 28.578 13.7686 27.9028 13.9014C27.2277 14.0342 26.5692 14.2168 25.9272 14.4492C25.2853 14.6816 24.7264 14.9417 24.2505 15.2295L23.769 15.0303V10.1992C25.1082 9.72331 26.4751 9.38574 27.8696 9.18652C29.2642 8.97624 30.5646 8.87109 31.771 8.87109C38.5002 8.87109 41.8647 10.7637 41.8647 14.5488V22.0029H43.4253V27H34.9253L34.1782 24.2773C33.7023 25.207 32.9608 25.943 31.9536 26.4854C30.9465 27.0277 29.9116 27.2988 28.8491 27.2988ZM31.9702 23.0488C32.3354 23.0488 32.7062 22.988 33.0825 22.8662C33.4699 22.7445 33.7355 22.6172 33.8794 22.4844V19.6953C33.7134 19.6732 33.4478 19.6068 33.0825 19.4961C32.7062 19.3965 32.3797 19.3467 32.103 19.3467C31.5164 19.3467 31.0461 19.5293 30.6919 19.8945C30.3488 20.2598 30.1772 20.7467 30.1772 21.3555C30.1772 21.8092 30.3377 22.2077 30.6587 22.5508C30.9907 22.8828 31.4279 23.0488 31.9702 23.0488ZM68.0786 15.7109V22.2021H70.3862V27H60.1099V15.6777C60.1099 15.2018 59.9549 14.7812 59.645 14.416C59.3462 14.0508 58.981 13.8682 58.5493 13.8682C57.7414 13.8682 57.2323 14.2721 57.022 15.0801C56.8006 15.9102 56.6899 17.0723 56.6899 18.5664V22.2021H56.7231V27H46.3472V22.2021H48.7544V14.3496H46.3472V9.86719L56.6899 8.87109V11.3613C57.4536 10.4538 58.3224 9.81185 59.2964 9.43555C60.2703 9.05924 61.3716 8.87109 62.6001 8.87109C66.2524 8.87109 68.0786 11.151 68.0786 15.7109ZM80.4302 27.2988C76.1691 27.2988 74.0386 25.0798 74.0386 20.6416V14.084H71.3823V9.21973H74.0386V5.41797L81.9907 3.6416V9.21973H85.1782V14.084H81.9907V20.0605C81.9907 20.5586 82.1789 20.9736 82.5552 21.3057C82.9315 21.6377 83.4019 21.8037 83.9663 21.8037C84.3758 21.8037 84.7798 21.7705 85.1782 21.7041V26.3193C83.7173 26.9723 82.1346 27.2988 80.4302 27.2988ZM94.0933 27.2988C92.9644 27.2988 91.9406 27.0775 91.022 26.6348C90.0923 26.2031 89.3507 25.5778 88.7974 24.7588C88.244 23.9398 87.9673 22.988 87.9673 21.9033C87.9673 20.7301 88.2938 19.734 88.9468 18.915C89.5998 18.1182 90.452 17.5205 91.5034 17.1221C92.5659 16.7236 93.7114 16.5244 94.9399 16.5244C96.3898 16.5244 97.7843 16.7402 99.1235 17.1719V16.4248C99.1235 15.5394 98.7472 14.8643 97.9946 14.3994C97.2531 13.9346 96.2459 13.7021 94.9731 13.7021C94.4308 13.7021 93.8221 13.7686 93.147 13.9014C92.4718 14.0342 91.8133 14.2168 91.1714 14.4492C90.5295 14.6816 89.9705 14.9417 89.4946 15.2295L89.0132 15.0303V10.1992C90.3524 9.72331 91.7192 9.38574 93.1138 9.18652C94.5083 8.97624 95.8088 8.87109 97.0151 8.87109C103.744 8.87109 107.109 10.7637 107.109 14.5488V22.0029H108.669V27H100.169L99.4224 24.2773C98.9465 25.207 98.2049 25.943 97.1978 26.4854C96.1906 27.0277 95.1558 27.2988 94.0933 27.2988ZM97.2144 23.0488C97.5796 23.0488 97.9504 22.988 98.3267 22.8662C98.714 22.7445 98.9797 22.6172 99.1235 22.4844V19.6953C98.9575 19.6732 98.6919 19.6068 98.3267 19.4961C97.9504 19.3965 97.6239 19.3467 97.3472 19.3467C96.7606 19.3467 96.2902 19.5293 95.936 19.8945C95.5929 20.2598 95.4214 20.7467 95.4214 21.3555C95.4214 21.8092 95.5819 22.2077 95.9028 22.5508C96.2349 22.8828 96.672 23.0488 97.2144 23.0488ZM120.573 27.2988C118.304 27.2988 116.295 26.7012 114.546 25.5059L113.999 27H110.911V20.4424H114.613C114.757 21.2835 115.15 22.0361 115.792 22.7002C116.433 23.3643 117.175 23.6963 118.016 23.6963C118.337 23.6963 118.614 23.6077 118.846 23.4307C119.09 23.2536 119.211 22.9603 119.211 22.5508C119.211 22.1413 118.979 21.7705 118.514 21.4385C118.038 21.0954 117.33 20.7025 116.389 20.2598C115.249 19.6953 114.319 19.1807 113.6 18.7158C112.87 18.251 112.239 17.6423 111.708 16.8896C111.176 16.126 110.911 15.2129 110.911 14.1504C110.911 13.0547 111.27 12.1029 111.99 11.2949C112.709 10.498 113.655 9.89486 114.829 9.48535C116.002 9.07585 117.28 8.87109 118.664 8.87109C120.468 8.87109 122.144 9.34701 123.694 10.2988L124.109 9.21973H126.865V14.5156H123.661C123.384 13.7962 122.986 13.2318 122.465 12.8223C121.945 12.4128 121.336 12.208 120.639 12.208C119.82 12.208 119.411 12.4681 119.411 12.9883C119.422 13.3424 119.638 13.6468 120.058 13.9014C120.479 14.1449 121.159 14.4769 122.1 14.8975C122.687 15.141 123.223 15.3844 123.71 15.6279C124.197 15.8714 124.635 16.1038 125.022 16.3252C125.797 16.779 126.472 17.4209 127.047 18.251C127.623 19.07 127.911 20.0938 127.911 21.3223C127.911 22.6283 127.573 23.724 126.898 24.6094C126.223 25.5059 125.326 26.181 124.208 26.6348C123.091 27.0775 121.879 27.2988 120.573 27.2988ZM139.133 27.2988C134.872 27.2988 132.742 25.0798 132.742 20.6416V14.084H130.085V9.21973H132.742V5.41797L140.694 3.6416V9.21973H143.881V14.084H140.694V20.0605C140.694 20.5586 140.882 20.9736 141.258 21.3057C141.635 21.6377 142.105 21.8037 142.669 21.8037C143.079 21.8037 143.483 21.7705 143.881 21.7041V26.3193C142.42 26.9723 140.838 27.2988 139.133 27.2988ZM153.925 27.2988C150.361 27.2988 148.58 25.0687 148.58 20.6084V14.3496H146.438V9.86719L156.532 8.87109V20.6084C156.532 21.04 156.692 21.4385 157.013 21.8037C157.334 22.1579 157.71 22.335 158.142 22.335C158.64 22.335 159.028 22.1689 159.304 21.8369C159.592 21.4938 159.736 21.0732 159.736 20.5752V14.3496H158.142V9.86719L167.688 8.87109V22.0029H169.83V27H159.736V24.4102C159.149 25.3177 158.363 26.026 157.378 26.5352C156.404 27.0443 155.253 27.2988 153.925 27.2988ZM184.721 27H171.971V22.0029H174.113V14.3496H171.971V9.86719L182.065 8.87109V11.7598C182.419 11.2064 182.939 10.7139 183.625 10.2822C184.312 9.83952 185.042 9.49642 185.817 9.25293C186.603 8.99837 187.306 8.87109 187.925 8.87109V15.9102C186.63 15.4785 185.562 15.2627 184.721 15.2627C183.659 15.2627 182.95 15.5726 182.596 16.1924C182.242 16.8011 182.065 17.6035 182.065 18.5996V22.0029H184.721V27ZM199.862 27.2988C197.803 27.2988 196.016 26.917 194.5 26.1533C192.972 25.4007 191.799 24.3216 190.98 22.916C190.172 21.5104 189.768 19.8669 189.768 17.9854C189.768 16.126 190.167 14.5101 190.963 13.1377C191.749 11.7764 192.861 10.7249 194.3 9.9834C195.739 9.24186 197.427 8.87109 199.364 8.87109C201.146 8.87109 202.717 9.21973 204.079 9.91699C205.44 10.6253 206.491 11.627 207.233 12.9219C207.986 14.2168 208.362 15.7275 208.362 17.4541C208.362 18.0518 208.273 18.6162 208.096 19.1475H197.753C197.753 20.1878 198.146 21.0234 198.932 21.6543C199.718 22.2741 200.664 22.584 201.771 22.584C202.612 22.584 203.536 22.4401 204.543 22.1523C205.551 21.8535 206.563 21.3942 207.582 20.7744L207.864 20.874V25.3398C206.724 25.9928 205.551 26.4854 204.344 26.8174C203.149 27.1383 201.655 27.2988 199.862 27.2988ZM197.753 15.7441V16.2256H202.003V15.877C202.003 15.0911 201.821 14.416 201.456 13.8516C201.101 13.276 200.57 12.9883 199.862 12.9883C199.275 12.9883 198.777 13.2816 198.368 13.8682C197.958 14.4437 197.753 15.069 197.753 15.7441Z" fill="black"/>
</svg>
